<svg xmlns="http://www.w3.org/2000/svg" width="18.429" height="22.972" viewBox="0 0 33.429 37.972"><g transform="translate(-556.421 -4109.552)"><path d="M584.778,4119.619a13.5,13.5,0,0,1-19.863,18.291Z" fill="none" stroke="#3a9e52" stroke-linejoin="round" stroke-width="3"/><path d="M566.279,4136.654l-3.887-4.222c-4.357-4.731-7.238-15.558-2.506-19.915s15.284-.6,19.641,4.137l4.436,4.817" fill="#3a9e52" stroke="#3a9e52" stroke-linejoin="round" stroke-width="2"/><rect width="1.956" height="1.956" transform="matrix(-0.041, 0.999, -0.999, -0.041, 572.263, 4136.255)" fill="#3a9e52"/><rect width="1.956" height="1.956" transform="matrix(-0.041, 0.999, -0.999, -0.041, 576.2, 4136.417)" fill="#3a9e52"/><rect width="1.956" height="1.956" transform="matrix(-0.041, 0.999, -0.999, -0.041, 580.136, 4136.58)" fill="#3a9e52"/><rect width="1.956" height="1.956" transform="matrix(-0.041, 0.999, -0.999, -0.041, 576.362, 4132.481)" fill="#3a9e52"/><rect width="1.956" height="1.956" transform="matrix(-0.041, 0.999, -0.999, -0.041, 580.298, 4132.643)" fill="#3a9e52"/><rect width="1.956" height="1.956" transform="matrix(-0.041, 0.999, -0.999, -0.041, 584.235, 4132.805)" fill="#3a9e52"/><rect width="1.956" height="1.956" transform="matrix(-0.041, 0.999, -0.999, -0.041, 580.461, 4128.707)" fill="#3a9e52"/><rect width="1.956" height="1.956" transform="matrix(-0.041, 0.999, -0.999, -0.041, 584.397, 4128.869)" fill="#3a9e52"/><rect width="1.956" height="1.956" transform="matrix(-0.041, 0.999, -0.999, -0.041, 584.56, 4124.933)" fill="#3a9e52"/><path d="M583.992,4138.7s4.061,1.984,4.356,8.762" fill="none" stroke="#3a9e52" stroke-linejoin="round" stroke-width="3"/></g></svg>