<svg xmlns="http://www.w3.org/2000/svg" width="240.912" height="74.425" viewBox="0 0 240.912 74.425"><g transform="translate(-69.599 -31.717)"><path d="M173.737,84.036a18.776,18.776,0,0,1-7.256-1.341,22.292,22.292,0,0,1-6.249-4.022l1.628-1.868a23.708,23.708,0,0,0,2.754,2.227,15.31,15.31,0,0,0,5.818,2.442,17.828,17.828,0,0,0,3.448.311,11.331,11.331,0,0,0,3.449-.5,8.2,8.2,0,0,0,2.681-1.389,6.438,6.438,0,0,0,1.724-2.107,5.773,5.773,0,0,0,.623-2.658v-.1a6.619,6.619,0,0,0-.407-2.395,4.6,4.6,0,0,0-1.485-1.915,10.809,10.809,0,0,0-2.9-1.557,30.127,30.127,0,0,0-4.693-1.269,32.514,32.514,0,0,1-5.172-1.46,12.781,12.781,0,0,1-3.52-1.964,6.751,6.751,0,0,1-1.988-2.61,8.725,8.725,0,0,1-.623-3.4v-.1a7.55,7.55,0,0,1,.815-3.472,8.819,8.819,0,0,1,2.251-2.8,10.6,10.6,0,0,1,3.4-1.867,13.256,13.256,0,0,1,4.31-.671,17.78,17.78,0,0,1,6.3,1.006,18.9,18.9,0,0,1,5.2,3.065l-1.581,1.963a14.385,14.385,0,0,0-10.009-3.783,10.645,10.645,0,0,0-3.376.5,8.275,8.275,0,0,0-2.586,1.365,5.988,5.988,0,0,0-1.652,2.011,5.375,5.375,0,0,0-.575,2.442v.1a6.793,6.793,0,0,0,.407,2.419,4.717,4.717,0,0,0,1.485,1.963,10.55,10.55,0,0,0,2.993,1.6,34.348,34.348,0,0,0,4.884,1.341q5.843,1.2,8.429,3.376a7.276,7.276,0,0,1,2.586,5.866v.1a8.289,8.289,0,0,1-.838,3.712,8.659,8.659,0,0,1-2.3,2.9,10.764,10.764,0,0,1-3.5,1.868A14.241,14.241,0,0,1,173.737,84.036Z" fill="#fff"/><path d="M189.684,49.555h2.922v3.209h-2.922Zm.288,9.578h2.346V83.557h-2.346Z" fill="#fff"/><path d="M206.829,83.988a9.089,9.089,0,0,1-2.682-.383,5.626,5.626,0,0,1-3.64-3.328,7.761,7.761,0,0,1-.527-2.993v-16h-3.544V59.133h3.544V51.327h2.347v7.806H210.9v2.155h-8.572v15.72q0,2.628,1.365,3.679a5.609,5.609,0,0,0,3.52,1.05,7.851,7.851,0,0,0,1.724-.181,10.7,10.7,0,0,0,1.868-.633v2.2a10.187,10.187,0,0,1-1.892.647A9.267,9.267,0,0,1,206.829,83.988Z" fill="#fff"/><path d="M226.847,84.036a18.776,18.776,0,0,1-7.256-1.341,22.292,22.292,0,0,1-6.249-4.022l1.628-1.868a23.869,23.869,0,0,0,2.753,2.227,15.323,15.323,0,0,0,5.819,2.442,17.828,17.828,0,0,0,3.448.311,11.325,11.325,0,0,0,3.448-.5,8.206,8.206,0,0,0,2.682-1.389,6.438,6.438,0,0,0,1.724-2.107,5.773,5.773,0,0,0,.623-2.658v-.1a6.619,6.619,0,0,0-.407-2.395,4.6,4.6,0,0,0-1.485-1.915,10.809,10.809,0,0,0-2.9-1.557,30.127,30.127,0,0,0-4.693-1.269,32.513,32.513,0,0,1-5.172-1.46,12.788,12.788,0,0,1-3.521-1.964,6.758,6.758,0,0,1-1.987-2.61,8.725,8.725,0,0,1-.622-3.4v-.1A7.549,7.549,0,0,1,215.5,54.9a8.829,8.829,0,0,1,2.25-2.8,10.618,10.618,0,0,1,3.4-1.867,13.256,13.256,0,0,1,4.31-.671,17.774,17.774,0,0,1,6.3,1.006,18.891,18.891,0,0,1,5.2,3.065l-1.581,1.963a14.385,14.385,0,0,0-10.009-3.783,10.641,10.641,0,0,0-3.376.5,8.276,8.276,0,0,0-2.586,1.365,6,6,0,0,0-1.653,2.011,5.387,5.387,0,0,0-.574,2.442v.1a6.793,6.793,0,0,0,.407,2.419,4.723,4.723,0,0,0,1.484,1.963,10.572,10.572,0,0,0,2.994,1.6,34.311,34.311,0,0,0,4.884,1.341q5.843,1.2,8.429,3.376a7.276,7.276,0,0,1,2.586,5.866v.1a8.289,8.289,0,0,1-.838,3.712,8.649,8.649,0,0,1-2.3,2.9,10.748,10.748,0,0,1-3.5,1.868A14.241,14.241,0,0,1,226.847,84.036Z" fill="#fff"/><path d="M242.746,59.133h2.347v5.46a16.948,16.948,0,0,1,1.772-2.3,12.135,12.135,0,0,1,2.227-1.916,11.443,11.443,0,0,1,2.729-1.317,10.484,10.484,0,0,1,3.329-.5,11.464,11.464,0,0,1,4.334.863,11.744,11.744,0,0,1,3.807,2.49,12.377,12.377,0,0,1,2.706,4,13.279,13.279,0,0,1,1.03,5.339v.1a13.28,13.28,0,0,1-1.03,5.34,12.675,12.675,0,0,1-2.706,4.023,11.884,11.884,0,0,1-3.807,2.538,11.424,11.424,0,0,1-7.686.407,10.63,10.63,0,0,1-2.754-1.293,12.331,12.331,0,0,1-2.2-1.868,17.146,17.146,0,0,1-1.748-2.2V91.22h-2.347Zm12.189,22.748a9.833,9.833,0,0,0,3.768-.718,8.864,8.864,0,0,0,3.049-2.059,9.6,9.6,0,0,0,2.04-3.281,12.163,12.163,0,0,0,.744-4.382v-.1a11.877,11.877,0,0,0-.768-4.358,9.916,9.916,0,0,0-2.089-3.328,9.366,9.366,0,0,0-6.744-2.85,9.406,9.406,0,0,0-3.721.767,10.058,10.058,0,0,0-3.192,2.155,10.645,10.645,0,0,0-2.233,3.3,10.5,10.5,0,0,0-.84,4.262v.1a10.67,10.67,0,0,0,.84,4.286,10.151,10.151,0,0,0,5.425,5.436A9.4,9.4,0,0,0,254.935,81.881Z" fill="#fff"/><path d="M282.3,84.132a11.982,11.982,0,0,1-5-1.03,12.815,12.815,0,0,1-3.951-2.753,12.4,12.4,0,0,1-2.61-4.023,12.848,12.848,0,0,1-.934-4.885v-.1a12.819,12.819,0,0,1,3.568-8.955,12.652,12.652,0,0,1,4-2.8,12.162,12.162,0,0,1,5.028-1.03,12.005,12.005,0,0,1,5.005,1.03,12.841,12.841,0,0,1,3.951,2.754,12.412,12.412,0,0,1,2.61,4.023,12.859,12.859,0,0,1,.934,4.884v.1a12.824,12.824,0,0,1-3.568,8.956,12.656,12.656,0,0,1-4,2.8A12.154,12.154,0,0,1,282.3,84.132Zm.1-2.251a9.656,9.656,0,0,0,4.018-.834,9.862,9.862,0,0,0,3.176-2.241,10.192,10.192,0,0,0,2.069-3.313,11.029,11.029,0,0,0,.746-4.053v-.1a11.036,11.036,0,0,0-.77-4.124,10.317,10.317,0,0,0-2.141-3.36,9.947,9.947,0,0,0-3.224-2.241,9.8,9.8,0,0,0-3.97-.811,9.673,9.673,0,0,0-4.018.835,9.877,9.877,0,0,0-3.177,2.241,10.194,10.194,0,0,0-2.069,3.313,11.052,11.052,0,0,0-.745,4.052v.1a11.036,11.036,0,0,0,.77,4.124A10.338,10.338,0,0,0,275.2,78.83a9.921,9.921,0,0,0,3.224,2.241A9.8,9.8,0,0,0,282.4,81.881Z" fill="#fff"/><path d="M306.44,83.988a9.089,9.089,0,0,1-2.682-.383,5.621,5.621,0,0,1-3.639-3.328,7.761,7.761,0,0,1-.527-2.993v-16h-3.544V59.133h3.544V51.327h2.346v7.806h8.573v2.155h-8.573v15.72q0,2.628,1.365,3.679a5.611,5.611,0,0,0,3.52,1.05,7.851,7.851,0,0,0,1.724-.181,10.67,10.67,0,0,0,1.868-.633v2.2a10.188,10.188,0,0,1-1.892.647A9.26,9.26,0,0,1,306.44,83.988Z" fill="#fff"/><path d="M129.652,93.4a2.008,2.008,0,0,1-1.266-.508c-.019-.016-.038-.033-.055-.05L113.578,78.191c-.675-.709-1.267-1.287-1.839-1.846a25.274,25.274,0,0,1-3.133-3.468,12.485,12.485,0,0,1,2.84-17.408c.309-.222.629-.431.957-.624l-4.252-3.467a.814.814,0,0,1,.265-1.4l10.112-3.257a.607.607,0,0,1,.07-.019c4.805-1.087,7.8.269,9.459,1.6a8.574,8.574,0,0,1,3.186,6.753V91.673a1.738,1.738,0,0,1-.688,1.43A1.527,1.527,0,0,1,129.652,93.4Zm-.2-1.742a.765.765,0,0,0,.17.106.411.411,0,0,1,0-.109V55.047a6.956,6.956,0,0,0-2.575-5.482c-1.38-1.1-3.9-2.22-8.05-1.29l-8.654,2.788c1.223,1,3.1,2.529,4.048,3.3a.813.813,0,0,1-.174,1.37,10.964,10.964,0,0,0-1.816,1.057,10.856,10.856,0,0,0-2.469,15.137,23.93,23.93,0,0,0,2.948,3.256c.583.569,1.186,1.157,1.865,1.871Z" fill="#fff"/><path d="M83.182,93.4a1.448,1.448,0,0,1-.859-.282,1.635,1.635,0,0,1-.654-1.336V66.351c0-3.987.481-7.734,6.291-9.757l12.634-4.056a.813.813,0,0,1,.987,1.115s-1.607,3.487-2.4,5.2c.143.093.285.191.423.29a11.31,11.31,0,0,1,2.572,15.769,22.743,22.743,0,0,1-2.827,3.131c-.5.491-1.042,1.017-1.636,1.641L84.428,92.874c-.017.018-.036.034-.055.051A1.886,1.886,0,0,1,83.182,93.4Zm.125-1.563h0Zm-.012-23.532V91.7l.017-.013L96.549,78.545c.593-.624,1.146-1.164,1.662-1.668a21.526,21.526,0,0,0,2.643-2.918,9.682,9.682,0,0,0-3.119-14.083.812.812,0,0,1-.337-1.055c.332-.707,1.255-2.7,1.931-4.168L88.476,58.137c-4.4,1.532-5.181,3.871-5.181,8.214Z" fill="#fff"/><path d="M129.9,84.227a1.614,1.614,0,0,1-1.021-.406.664.664,0,0,1-.056-.05L118.885,73.9c-.46-.483-.862-.876-1.238-1.243a17.328,17.328,0,0,1-2.141-2.372,8.671,8.671,0,1,1,15.737-5.069V82.795a1.43,1.43,0,0,1-.574,1.179A1.3,1.3,0,0,1,129.9,84.227Zm-7.379-26.052a7.045,7.045,0,0,0-5.7,11.156,15.668,15.668,0,0,0,1.956,2.159c.389.38.806.787,1.264,1.269l9.569,9.5V65.213a7.105,7.105,0,0,0-5.939-6.945A7.244,7.244,0,0,0,122.526,58.175Z" fill="#fff"/><path d="M82.911,85.148a1.235,1.235,0,0,1-.713-.23,1.3,1.3,0,0,1-.529-1.06V69.7a7.144,7.144,0,1,1,12.947,4.17,14.007,14.007,0,0,1-1.741,1.93c-.3.293-.623.608-.978.981l-.016.017-8,7.943c-.018.017-.036.034-.055.049A1.434,1.434,0,0,1,82.911,85.148ZM88.84,64.194a5.616,5.616,0,0,0-.9.074A5.556,5.556,0,0,0,83.295,69.7V83.028l7.432-7.379c.367-.386.7-.712,1.012-1.016A12.513,12.513,0,0,0,93.3,72.917a5.506,5.506,0,0,0-4.456-8.723Zm2.468,12.024h0Z" fill="#fff"/><path d="M94.933,61.028a.508.508,0,0,1-.489-.371.839.839,0,0,0-1.621,0,.509.509,0,0,1-.98-.273,1.856,1.856,0,0,1,3.58,0,.509.509,0,0,1-.353.626A.543.543,0,0,1,94.933,61.028Z" fill="#fff"/><path d="M116.458,53.3a.5.5,0,0,1-.137-.018.51.51,0,0,1-.353-.627,1.856,1.856,0,0,1,3.58,0,.508.508,0,1,1-.979.273.84.84,0,0,0-1.622,0A.507.507,0,0,1,116.458,53.3Z" fill="#fff"/><path d="M81.669,78.674H77.044a.813.813,0,0,0,0,1.627h4.625Zm62.355-9.745a37.071,37.071,0,0,1-1.6,10.8c-.01.029-.013.06-.025.087a37.212,37.212,0,1,1,1.629-10.89Zm-1.626,0A35.616,35.616,0,1,0,140.524,80.3h-9.281V78.674h9.787A35.464,35.464,0,0,0,142.4,68.929Zm-28.334,9.745H98.7c-.316.313-.642.641-.992,1.008l-.622.619H115.7Z" fill="#fff"/></g></svg>